<svg xmlns="http://www.w3.org/2000/svg"  viewBox="0 0 512 512" width="128px" height="128px"><g data-name="10 New Year"><path fill="#e6e7e8" d="M416.76,317.94a23.72,23.72,0,0,0,23.72-23.73v9a33,33,0,0,1-10.92,24.53L380,372.36V317.94Z"/><path fill="#b79cc9" d="M380,372.36H487.29a13.68,13.68,0,0,0,11-21.86L465.76,307a13.71,13.71,0,0,1,0-16.38L498.26,247a13.68,13.68,0,0,0-11-21.85H440.48v78a33.16,33.16,0,0,1-11,24.65Z"/><rect width="368.97" height="147.18" x="71.52" y="170.76" fill="#d2b4d5" rx="23.72"/><path fill="#e6e7e8" d="M95.24,317.94a23.72,23.72,0,0,1-23.72-23.73v9a33,33,0,0,0,10.92,24.53L132,372.36V317.94Z"/><path fill="#b79cc9" d="M132,372.36H24.71a13.68,13.68,0,0,1-11-21.86L46.24,307a13.71,13.71,0,0,0,0-16.38L13.74,247a13.68,13.68,0,0,1,11-21.85H71.52v78a33.16,33.16,0,0,0,11,24.65Z"/><path fill="#f5d267" d="M252.38,31.47l2,6.2a6.79,6.79,0,0,0,6.46,4.69h6.52a6.79,6.79,0,0,1,4,12.29l-5.27,3.83a6.79,6.79,0,0,0-2.47,7.59l2,6.2a6.79,6.79,0,0,1-10.45,7.59L249.91,76a6.78,6.78,0,0,0-8,0l-5.28,3.83a6.79,6.79,0,0,1-10.45-7.59l2-6.2a6.79,6.79,0,0,0-2.47-7.59l-5.27-3.83a6.79,6.79,0,0,1,4-12.29H231a6.79,6.79,0,0,0,6.46-4.69l2-6.2A6.79,6.79,0,0,1,252.38,31.47Z"/><path fill="#f5d267" d="M252.38,435.5l2,6.2a6.79,6.79,0,0,0,6.46,4.69h6.52a6.79,6.79,0,0,1,4,12.29l-5.27,3.83a6.79,6.79,0,0,0-2.47,7.59l2,6.2a6.79,6.79,0,0,1-10.45,7.59l-5.27-3.83a6.78,6.78,0,0,0-8,0l-5.28,3.83a6.79,6.79,0,0,1-10.45-7.59l2-6.2a6.79,6.79,0,0,0-2.47-7.59l-5.27-3.83a6.79,6.79,0,0,1,4-12.29H231a6.79,6.79,0,0,0,6.46-4.69l2-6.2A6.8,6.8,0,0,1,252.38,435.5Z"/><circle cx="116.22" cy="101.6" r="19.56" fill="#f07a88"/><circle cx="375.62" cy="410.4" r="19.56" fill="#f07a88"/><circle cx="375.62" cy="101.6" r="19.56" fill="#8fd0ba"/><circle cx="116.22" cy="410.4" r="19.56" fill="#8fd0ba"/><path fill="#a793c2" d="M127.41,372.36H24.71a13.69,13.69,0,0,1-11-21.86L46.24,307a13.67,13.67,0,0,0,2-12.58A501.65,501.65,0,0,0,127.41,372.36Z"/><path d="M380,378.36a6,6,0,0,1-6-6V317.94a6,6,0,0,1,6-6h36.79a17.74,17.74,0,0,0,17.72-17.73,6,6,0,0,1,12,0v9a39,39,0,0,1-12.91,29L384,376.82A6,6,0,0,1,380,378.36Zm6-54.42v35l39.57-35.59c.39-.35.76-.7,1.12-1.07a29.54,29.54,0,0,1-9.9,1.7Z"/><path d="M487.29,378.36H380a6,6,0,0,1-4-10.46l49.53-44.54a27.19,27.19,0,0,0,9-20.19v-78a6,6,0,0,1,6-6h46.81a19.67,19.67,0,0,1,15.78,31.44l-32.5,43.54a7.74,7.74,0,0,0,0,9.2l32.5,43.54a19.69,19.69,0,0,1-15.78,31.45Zm-91.67-12h91.67a7.68,7.68,0,0,0,6.16-12.27L461,310.55A19.82,19.82,0,0,1,461,287l32.5-43.55a7.67,7.67,0,0,0-6.16-12.26H446.48v72a39.2,39.2,0,0,1-13,29.11Z"/><path d="M416.76,323.94H95.24a29.76,29.76,0,0,1-29.72-29.73V194.49a29.76,29.76,0,0,1,29.72-29.73H416.76a29.76,29.76,0,0,1,29.72,29.73v99.72A29.76,29.76,0,0,1,416.76,323.94ZM95.24,176.76a17.74,17.74,0,0,0-17.72,17.73v99.72a17.74,17.74,0,0,0,17.72,17.73H416.76a17.74,17.74,0,0,0,17.72-17.73V194.49a17.74,17.74,0,0,0-17.72-17.73Z"/><path d="M132,378.36a6,6,0,0,1-4-1.54L78.43,332.23a39,39,0,0,1-12.91-29v-9a6,6,0,0,1,12,0,17.74,17.74,0,0,0,17.72,17.73H132a6,6,0,0,1,6,6v54.42a6,6,0,0,1-6,6ZM85.34,322.24c.36.37.73.72,1.12,1.07L126,358.9v-35H95.24A29.54,29.54,0,0,1,85.34,322.24Z"/><path d="M132,378.36H24.71A19.43,19.43,0,0,1,7.54,368.3a19.66,19.66,0,0,1,.35-19.86,6,6,0,0,1,10.23,6.28,7.69,7.69,0,0,0,6.59,11.64h91.67l-37.9-34.08a39.2,39.2,0,0,1-13-29.11v-72H24.71a7.68,7.68,0,0,0-6.16,12.27L51,287A19.56,19.56,0,0,1,53,307.42a6,6,0,0,1-10.77-5.29,7.64,7.64,0,0,0-.75-8L8.93,250.63a19.68,19.68,0,0,1,15.78-31.44H71.52a6,6,0,0,1,6,6v78a27.17,27.17,0,0,0,9,20.19L136,367.9a6,6,0,0,1-4,10.46Z"/><path d="M27,338.67a6,6,0,0,1-4.8-9.59l6.72-9a6,6,0,1,1,9.61,7.18l-6.72,9A6,6,0,0,1,27,338.67Z"/><path d="M259.18,87.21a12.74,12.74,0,0,1-7.52-2.49l-5.28-3.84a.78.78,0,0,0-.93,0l-5.27,3.83a12.79,12.79,0,0,1-19.68-14.3l2-6.2a.79.79,0,0,0-.29-.89L217,59.5a12.79,12.79,0,0,1,7.52-23.14H231a.8.8,0,0,0,.75-.54l2-6.2a12.79,12.79,0,0,1,24.33,0h0l2,6.2a.79.79,0,0,0,.75.54h6.52a12.79,12.79,0,0,1,7.52,23.14l-5.28,3.83a.8.8,0,0,0-.28.89l2,6.2a12.59,12.59,0,0,1-4.65,14.3A12.73,12.73,0,0,1,259.18,87.21ZM224.47,48.36a.68.68,0,0,0-.75.55.68.68,0,0,0,.28.88l5.28,3.83a12.77,12.77,0,0,1,4.65,14.3l-2,6.2a.68.68,0,0,0,.29.89.7.7,0,0,0,.93,0l5.27-3.83a12.76,12.76,0,0,1,15,0L258.71,75a.79.79,0,0,0,1.22-.89l-2-6.2a12.77,12.77,0,0,1,4.65-14.3l5.27-3.83a.67.67,0,0,0,.29-.88.68.68,0,0,0-.75-.55h-6.52a12.74,12.74,0,0,1-12.16-8.84l-2-6.2a.68.68,0,0,0-.75-.54.67.67,0,0,0-.75.54l-2,6.2A12.74,12.74,0,0,1,231,48.36Z"/><path d="M259.18,491.24a12.74,12.74,0,0,1-7.52-2.49l-5.28-3.83a.77.77,0,0,0-.93,0l-5.27,3.83a12.79,12.79,0,0,1-19.68-14.3l2-6.2a.78.78,0,0,0-.28-.88L217,463.53a12.79,12.79,0,0,1,7.52-23.14H231a.8.8,0,0,0,.75-.54l2-6.2a12.79,12.79,0,0,1,24.33,0h0l2,6.2a.79.79,0,0,0,.75.54h6.52a12.79,12.79,0,0,1,7.52,23.14l-5.28,3.83a.8.8,0,0,0-.28.89l2,6.2a12.59,12.59,0,0,1-4.65,14.3A12.73,12.73,0,0,1,259.18,491.24Zm-34.71-38.85a.68.68,0,0,0-.75.55.67.67,0,0,0,.28.88l5.28,3.84a12.78,12.78,0,0,1,4.65,14.3l-2,6.2a.67.67,0,0,0,.29.88.68.68,0,0,0,.93,0l5.27-3.83a12.76,12.76,0,0,1,15,0l5.27,3.83a.79.79,0,0,0,1.22-.88l-2-6.2a12.76,12.76,0,0,1,4.65-14.3l5.27-3.84a.66.66,0,0,0,.29-.88.68.68,0,0,0-.75-.55h-6.52a12.75,12.75,0,0,1-12.16-8.83l-2-6.2a.68.68,0,0,0-.75-.55.67.67,0,0,0-.75.55l-2,6.2A12.75,12.75,0,0,1,231,452.39Z"/><path d="M116.24,127.15a25.53,25.53,0,1,1,16.41-6A25.51,25.51,0,0,1,116.24,127.15Zm0-39.11a13.57,13.57,0,0,0-10.36,22.28h0a13.56,13.56,0,0,0,20.77-17.43,13.43,13.43,0,0,0-9.21-4.79Q116.8,88,116.2,88Z"/><path d="M375.66,436c-.75,0-1.51,0-2.27-.1a25.49,25.49,0,1,1,2.27.1Zm-.05-39.11A13.54,13.54,0,1,0,386,401.68,13.49,13.49,0,0,0,375.61,396.85Z"/><path d="M375.57,127.16a25.65,25.65,0,1,1,2.27-.1C377.09,127.13,376.33,127.16,375.57,127.16ZM375.64,88q-.6,0-1.2.06A13.56,13.56,0,1,0,386,110.32h0A13.57,13.57,0,0,0,375.64,88Z"/><path d="M116.18,436a25.63,25.63,0,1,1,2.27-.1C117.69,435.92,116.93,436,116.18,436Zm0-39.11a13.54,13.54,0,1,0,8.71,3.16A13.51,13.51,0,0,0,116.23,396.85Z"/><path d="M332.17,447l-9.42-4.39,4.39-9.41a6,6,0,0,0-10.88-5.08l-4.39,9.42-9.41-4.39A6,6,0,1,0,297.39,444l9.41,4.4-4.39,9.41a6,6,0,0,0,2.9,8,6,6,0,0,0,8-2.9l4.39-9.41,9.41,4.39A6,6,0,0,0,332.17,447Z"/><path d="M159.45,65l9.42,4.39-4.39,9.41a6,6,0,0,0,10.88,5.08l4.39-9.42,9.41,4.39A6,6,0,1,0,194.23,68l-9.41-4.4,4.39-9.41a6,6,0,1,0-10.88-5.07l-4.39,9.41-9.41-4.39A6,6,0,1,0,159.45,65Z"/><path d="M189.38,433.12,180,437.51l-4.4-9.42a6,6,0,1,0-10.87,5.08l4.39,9.41L159.67,447a6,6,0,0,0,5.07,10.88l9.42-4.39,4.39,9.41a6,6,0,0,0,5.44,3.47,5.86,5.86,0,0,0,2.53-.57,6,6,0,0,0,2.91-8L185,448.39l9.41-4.4a6,6,0,0,0-5.07-10.87Z"/><path d="M300.15,79.44a6,6,0,0,0,2.53-.56l9.41-4.39,4.39,9.42a6,6,0,1,0,10.88-5.08L323,69.42,332.38,65a6,6,0,1,0-5.07-10.88l-9.41,4.39-4.39-9.41a6,6,0,1,0-10.88,5.07L307,63.61,297.61,68a6,6,0,0,0,2.54,11.43Z"/><path d="M310.3,277.33H282.14l28.24-40.87a26.64,26.64,0,0,0,4.09-20.14,24,24,0,0,0-10.22-15.71,18.73,18.73,0,0,0-15-2.68c-13.23,3.24-22.73,19.65-23.77,21.51a6,6,0,0,0,10.47,5.86c2-3.54,9.25-14,16.16-15.71a6.62,6.62,0,0,1,5.57,1,12.1,12.1,0,0,1,5,8,14.6,14.6,0,0,1-2.2,11L268.33,276.2a8.37,8.37,0,0,0,6.89,13.13H310.3a6,6,0,0,0,0-12Z"/><path d="M171.42,277.33H143.25l28.24-40.87a26.64,26.64,0,0,0,4.1-20.14,24,24,0,0,0-10.23-15.71,18.72,18.72,0,0,0-15-2.68c-13.22,3.24-22.72,19.65-23.76,21.51a6,6,0,1,0,10.47,5.86c2-3.54,9.18-14,16.15-15.71a6.59,6.59,0,0,1,5.57,1,12.07,12.07,0,0,1,5,8,14.59,14.59,0,0,1-2.19,11L129.45,276.2a8.37,8.37,0,0,0,6.88,13.13h35.09a6,6,0,1,0,0-12Z"/><path d="M219.1,197.37a26.58,26.58,0,0,0-26.55,26.55v38.86a26.55,26.55,0,0,0,53.1,0V223.92A26.58,26.58,0,0,0,219.1,197.37Zm14.55,65.41a14.55,14.55,0,0,1-29.1,0V223.92a14.55,14.55,0,0,1,29.1,0Z"/><path d="M380.19,245.72h-3.51V205.89a6,6,0,1,0-12,0v39.83H343.34l16.58-37.95a6,6,0,1,0-11-4.8l-20.24,46.35a6,6,0,0,0,5.5,8.4h30.5v27.61a6,6,0,0,0,12,0V257.72h3.51a6,6,0,0,0,0-12Z"/><path d="M245.92,411.31a6,6,0,0,1-6-6V317.94a6,6,0,0,1,12,0v87.37A6,6,0,0,1,245.92,411.31Z"/><path d="M245.92,176.76a6,6,0,0,1-6-6V106.69a6,6,0,0,1,12,0v64.07A6,6,0,0,1,245.92,176.76Z"/><path d="M342,376.31a6,6,0,0,1-4.6-2.15l-43.94-52.37a6,6,0,1,1,9.19-7.71l43.94,52.37a6,6,0,0,1-.74,8.45A5.93,5.93,0,0,1,342,376.31Z"/><path d="M174.54,176.76a6,6,0,0,1-4.6-2.14l-24.51-29.21a6,6,0,1,1,9.19-7.72l24.51,29.21a6,6,0,0,1-.74,8.45A5.93,5.93,0,0,1,174.54,176.76Z"/><path d="M297.09,402.23a6,6,0,0,1-5.64-4L263,320a6,6,0,1,1,11.27-4.1l28.5,78.29a6,6,0,0,1-3.58,7.69A6.15,6.15,0,0,1,297.09,402.23Z"/><path d="M215,176.76a6,6,0,0,1-5.64-3.95l-20.07-55.14a6,6,0,1,1,11.27-4.1l20.07,55.14a6,6,0,0,1-3.58,7.69A6.15,6.15,0,0,1,215,176.76Z"/><path d="M194.75,402.23a6.15,6.15,0,0,1-2.05-.36,6,6,0,0,1-3.58-7.69l28.49-78.29a6,6,0,1,1,11.27,4.1l-28.49,78.29A6,6,0,0,1,194.75,402.23Z"/><path d="M276.81,176.76a6.15,6.15,0,0,1-2.05-.36,6,6,0,0,1-3.58-7.69l20.07-55.14a6,6,0,1,1,11.27,4.1l-20.07,55.14A6,6,0,0,1,276.81,176.76Z"/><path d="M149.86,376.31A5.93,5.93,0,0,1,146,374.9a6,6,0,0,1-.74-8.45l43.94-52.37a6,6,0,1,1,9.19,7.71l-43.94,52.37A6,6,0,0,1,149.86,376.31Z"/><path d="M317.29,176.76a5.93,5.93,0,0,1-3.85-1.41,6,6,0,0,1-.74-8.45l24.51-29.21a6,6,0,1,1,9.19,7.72l-24.51,29.21A6,6,0,0,1,317.29,176.76Z"/></g></svg>