<svg fill="#000000" xmlns="http://www.w3.org/2000/svg"  viewBox="0 0 64 64" width="64px" height="64px"><path d="M44.39,56.985l-19.473,2.003c-8.861-9.781-12.53-22.461-17.694-29.095c0,0,1.77-2.864,5.777-1.394	c3.477,1.276,3.223,4.811,8,7.5c0,0,0.357-24.463,0.385-25.794c0.03-1.4,1.314-2.136,2.26-2.137	c0.946-0.001,2.419,0.419,2.604,2.041s1.22,15.65,1.451,16.569c0.284,1.128,1.343,0.908,1.405-0.064	c0.04-0.631,0.489-19.432,0.544-20.415c0.074-1.322,1.349-2.172,2.776-2.138c1.427,0.033,2.532,0.797,2.586,2.467	C35.064,8.2,34.965,25.751,35,26.791c0.041,1.236,1.772,1.464,2,0.047C37.151,25.9,38.416,8.897,38.45,8.08	c0.054-1.309,1.641-2.195,2.897-1.993c1.256,0.202,2.421,1.144,2.373,2.525c-0.035,1.005-0.907,19.306-0.994,20.799	c-0.087,1.493,1.546,1.796,1.865,0.377c0.316-1.403,1.741-12.325,1.929-13.25c0.227-1.119,1.34-1.763,2.573-1.465	c1.233,0.298,1.79,1.072,1.77,2.212c-0.021,1.139-2.376,26.793-2.757,30.996C47.703,52.719,44.39,56.985,44.39,56.985z"/></svg>