<svg fill="#000000" xmlns="http://www.w3.org/2000/svg"  viewBox="0 0 64 64" width="64px" height="64px"><path d="M 30.5 16 C 28 16 27 17.636 27 19 L 27 20 C 27 18.63 26 17 23.5 17 C 21 17 20.262 18.661 20 20 C 19.707 21.5 18.791016 29.957031 18.791016 29.957031 C 18.791016 29.957031 17.007719 30.739047 16.011719 32.373047 C 15.133719 33.814047 15.029297 37.983547 15.029297 39.935547 C 15.029297 44.099547 16.014375 46.509563 25.984375 52.976562 L 44.1875 49.572266 C 44.1875 49.572266 45.915114 46.664838 46.748047 43.224609 L 46.759766 43.255859 C 46.759766 43.255859 46.788374 43.053918 46.792969 43.025391 C 46.978862 42.218305 47.132197 41.393673 47.179688 40.5625 C 47.200752 40.19357 47.235727 39.788753 47.259766 39.40625 C 47.560252 36.791403 47.882287 33.173146 47.96875 28.960938 C 47.972366 28.884192 47.987417 28.69696 47.990234 28.626953 C 47.991768 28.588411 47.976848 28.543964 47.974609 28.503906 C 47.982619 28.001271 48 27.512459 48 27 L 48 25 C 48 23.337 47.508 19 44.5 19 C 41.492 19 41 21 41 22 L 41 20 C 41 18.663 40 17 37.5 17 C 35 17 34 18.636 34 20 L 34 19 C 34 17.668 33 16 30.5 16 z"/></svg>