<svg fill="#000000" xmlns="http://www.w3.org/2000/svg"  viewBox="0 0 64 64" width="64px" height="64px"><path d="M 22.464844 16.339844 C 21.947314 16.345633 21.427031 16.461234 20.941406 16.693359 L 10.746094 21.566406 C 9.7331338 21.956403 8.7073178 22.435986 7.6796875 23.029297 L 7.6796875 23.033203 L 7.6757812 23.035156 L 7.6796875 23.037109 L 6.0195312 43.460938 C 6.0195312 43.460938 9.1494531 48.080859 16.189453 48.630859 C 20.409453 48.960859 27.769531 49.570312 27.769531 49.570312 C 26.379531 48.700312 25.159141 47.939766 24.869141 47.759766 C 22.299141 46.159766 21.919687 43.839766 22.679688 42.259766 C 23.159688 41.249766 24.009062 40.540937 25.039062 40.210938 C 24.269062 39.190937 24.079844 38.019766 24.339844 37.009766 C 24.759844 35.429766 25.989922 34.350313 27.669922 34.070312 C 26.429922 32.910312 24.729453 30.620391 24.189453 27.400391 L 22.349609 26.349609 L 19.779297 27.240234 L 19.097656 26.164062 L 22.087891 24.005859 L 26.214844 26.492188 C 26.738844 32.150188 29.177094 33.365484 32.746094 33.271484 L 32.21875 25.095703 C 32.14875 24.019703 31.648125 23.016453 30.828125 22.314453 L 24.865234 17.210938 C 24.183984 16.627812 23.327393 16.330195 22.464844 16.339844 z M 54.199219 18.710938 C 53.449219 18.790937 42.359063 20.220938 32.789062 21.460938 C 33.619062 22.430937 34.130703 23.670703 34.220703 24.970703 L 34.859375 34.929688 C 44.589375 35.329688 56.739766 35.870391 57.759766 35.900391 C 59.439766 35.930391 60.259141 34.859687 60.369141 33.429688 C 60.479141 32.009688 59.689141 30.689063 58.369141 30.539062 C 57.389141 30.439062 38.479609 28.979453 37.849609 28.939453 C 37.219609 28.899453 36.959609 28.009453 37.849609 27.689453 C 38.739609 27.359453 53.300625 23.929063 54.890625 23.539062 C 56.490625 23.159062 56.719375 21.639219 56.609375 20.699219 C 56.489375 19.759219 55.599219 18.570937 54.199219 18.710938 z M 28.701172 35.990234 C 27.372498 35.951447 26.520187 36.576078 26.273438 37.517578 C 26.066437 38.310578 26.509719 39.462906 28.261719 40.128906 C 29.067719 40.434906 37.616187 43.386719 37.617188 43.386719 C 38.985187 43.809719 40.547281 42.408875 40.863281 41.171875 C 41.376281 39.159875 40.318141 37.8505 38.994141 37.5625 C 37.670141 37.2745 30.970828 36.318828 29.298828 36.048828 C 29.089953 36.015203 28.890982 35.995775 28.701172 35.990234 z M 26.621094 42.007812 C 25.596219 41.932859 24.842719 42.369594 24.480469 43.121094 C 24.125469 43.860094 24.339641 45.076406 25.931641 46.066406 C 26.663641 46.521406 33.552734 50.823219 33.552734 50.824219 C 34.814734 51.501219 36.615109 50.426437 37.162109 49.273438 C 38.052109 47.397438 37.267437 45.908094 36.023438 45.371094 C 34.780438 44.834094 29.321422 42.846719 27.732422 42.261719 C 27.335172 42.115469 26.962719 42.032797 26.621094 42.007812 z"/></svg>