<?xml version="1.0" standalone="no"?>
<!DOCTYPE svg PUBLIC "-//W3C//DTD SVG 20010904//EN"
 "http://www.w3.org/TR/2001/REC-SVG-20010904/DTD/svg10.dtd">
<svg version="1.0" xmlns="http://www.w3.org/2000/svg"
 width="700.000000pt" height="700.000000pt" viewBox="0 0 700.000000 700.000000"
 preserveAspectRatio="xMidYMid meet">
<metadata>
Created by potrace 1.11, written by Peter Selinger 2001-2013
</metadata>
<g transform="translate(0.000000,700.000000) scale(0.100000,-0.100000)"
fill="#000000" stroke="none">
<path d="M3415 6693 c-131 -26 -212 -68 -295 -152 -70 -70 -93 -114 -688
-1321 -59 -118 -111 -218 -116 -222 -5 -3 -34 -9 -65 -13 -30 -4 -62 -8 -71
-10 -8 -1 -37 -6 -65 -9 -27 -4 -61 -9 -75 -11 -14 -2 -61 -9 -105 -15 -44 -6
-91 -13 -105 -15 -14 -3 -61 -10 -105 -15 -108 -15 -120 -17 -275 -40 -74 -11
-155 -22 -180 -25 -25 -3 -52 -7 -60 -10 -8 -2 -37 -7 -65 -10 -27 -3 -63 -7
-80 -10 -16 -3 -46 -7 -65 -9 -29 -4 -194 -29 -265 -41 -154 -26 -293 -128
-368 -272 -87 -166 -88 -348 -4 -508 31 -58 102 -132 463 -482 45 -43 202
-196 350 -339 148 -144 302 -293 342 -332 l74 -70 -41 -238 c-45 -259 -49
-279 -55 -309 -2 -11 -7 -40 -11 -65 -14 -87 -54 -327 -60 -360 -3 -14 -7 -35
-9 -46 -2 -12 -7 -37 -10 -55 -3 -19 -7 -43 -10 -54 -2 -11 -7 -40 -11 -65 -4
-25 -9 -52 -10 -61 -2 -9 -6 -34 -9 -55 -4 -22 -10 -61 -16 -89 -5 -27 -12
-68 -15 -90 -4 -22 -10 -61 -14 -87 -15 -92 9 -231 54 -309 101 -178 284 -289
475 -289 134 0 160 11 615 250 50 26 140 73 200 105 61 32 146 77 190 100 44
23 148 77 230 120 83 43 182 94 220 115 39 20 98 52 132 70 l62 32 158 -82
c87 -46 196 -103 243 -128 47 -24 141 -74 210 -109 69 -36 166 -87 215 -113
50 -26 149 -78 220 -115 72 -37 157 -82 190 -100 243 -130 281 -143 404 -143
145 0 261 44 366 140 138 126 201 299 171 473 -29 174 -46 276 -51 310 -4 22
-8 47 -10 55 -2 8 -7 30 -10 48 -3 17 -8 47 -11 65 -3 17 -8 43 -9 57 -2 14
-8 50 -14 80 -10 59 -16 95 -31 180 -5 30 -12 69 -15 85 -3 17 -10 57 -15 90
-14 84 -20 116 -25 145 -3 14 -7 36 -10 50 -3 22 -17 104 -30 180 -3 14 -12
67 -21 119 l-16 94 115 111 c294 282 887 857 991 962 142 141 186 241 182 411
-4 152 -55 273 -160 376 -101 100 -197 139 -411 163 -22 2 -50 6 -62 9 -12 3
-41 7 -65 10 -24 3 -104 15 -178 26 -164 24 -155 23 -415 60 -115 16 -221 32
-235 34 -22 4 -209 30 -285 41 -16 2 -69 10 -117 16 l-88 13 -313 630 c-172
347 -338 680 -367 740 -43 87 -68 124 -120 176 -67 68 -148 117 -230 139 -45
13 -197 21 -235 13z m641 -1426 c145 -291 278 -547 295 -568 55 -70 142 -117
244 -133 22 -4 90 -14 150 -22 61 -8 121 -17 135 -19 32 -5 303 -44 350 -51
19 -2 50 -7 68 -10 17 -3 49 -7 70 -10 20 -2 48 -7 62 -9 14 -3 59 -9 101 -15
41 -6 84 -12 95 -14 10 -2 42 -7 69 -10 28 -4 66 -10 85 -13 19 -3 44 -7 55
-8 11 -1 27 -3 35 -4 8 -1 -84 -29 -205 -63 -121 -33 -249 -68 -285 -79 -36
-10 -123 -34 -195 -53 -71 -19 -206 -56 -300 -82 -93 -25 -208 -57 -255 -69
-153 -41 -682 -185 -793 -216 -60 -17 -111 -29 -113 -26 -4 4 -7 1574 -4 2062
l0 90 37 -75 c20 -41 155 -313 299 -603z m-774 -409 c0 -1027 -1 -1063 -19
-1062 -10 1 -54 11 -98 23 -44 12 -102 29 -130 36 -27 8 -133 37 -235 65 -102
28 -192 53 -200 55 -108 29 -151 41 -366 101 -93 26 -198 54 -234 64 -36 9
-139 38 -230 63 -362 101 -576 160 -605 167 -36 9 -22 16 50 25 28 4 64 8 80
11 73 10 239 34 340 48 61 9 124 18 140 21 156 22 605 87 631 90 92 12 195 70
248 140 22 29 279 536 551 1088 37 76 70 136 72 133 3 -2 5 -483 5 -1068z
m-1782 -1034 c250 -69 478 -131 505 -139 28 -8 142 -40 255 -71 113 -31 234
-64 270 -74 36 -9 110 -30 165 -44 55 -15 114 -31 131 -37 17 -5 40 -12 50
-14 71 -16 250 -68 256 -74 4 -4 -96 -157 -223 -341 -127 -184 -260 -378 -295
-430 -36 -52 -146 -212 -245 -355 -99 -143 -264 -382 -367 -532 -103 -149
-188 -270 -190 -268 -3 3 16 130 33 215 3 14 19 106 35 205 17 99 33 187 35
195 2 8 7 33 10 55 3 23 7 50 9 60 2 11 7 40 11 65 4 25 9 54 11 65 2 11 18
101 35 199 17 99 33 189 35 200 7 37 7 121 -1 156 -15 72 -59 144 -136 220
-41 41 -197 193 -345 336 -557 541 -562 546 -529 539 17 -4 235 -63 485 -131z
m4375 -1 c-77 -74 -252 -245 -390 -378 -137 -133 -289 -280 -336 -326 -102
-99 -142 -153 -164 -219 -17 -51 -22 -143 -12 -195 4 -16 9 -46 12 -65 3 -19
10 -57 15 -85 8 -41 56 -320 76 -440 2 -16 7 -37 9 -45 2 -8 6 -31 9 -50 3
-19 17 -102 31 -185 14 -82 27 -163 30 -180 3 -16 8 -46 11 -65 4 -19 8 -42 9
-50 2 -8 6 -35 10 -60 4 -25 6 -43 3 -40 -3 3 -186 268 -408 590 -222 322
-422 612 -445 645 -36 52 -216 314 -417 605 -32 46 -55 87 -50 91 4 4 34 14
67 22 33 9 87 23 120 32 33 9 431 117 885 241 454 123 841 228 860 234 143 41
206 59 210 59 3 0 -58 -61 -135 -136z m-2338 -761 c17 -26 53 -78 80 -117 27
-38 78 -113 114 -165 35 -52 68 -99 72 -105 7 -8 192 -276 542 -785 39 -58
108 -157 152 -220 43 -63 115 -167 158 -230 43 -63 97 -142 120 -175 23 -33
45 -66 50 -74 7 -13 -43 13 -300 149 -38 20 -142 74 -230 120 -88 46 -187 97
-220 115 -33 18 -148 78 -255 133 -232 120 -285 133 -415 106 -26 -5 -290
-137 -480 -239 -33 -18 -132 -69 -220 -115 -88 -46 -191 -100 -230 -120 -38
-20 -123 -65 -189 -100 -65 -35 -115 -56 -110 -48 20 34 288 423 864 1256 209
302 371 538 423 615 17 26 34 47 37 47 3 0 19 -22 37 -48z"/>
</g>
</svg>
